<svg xmlns="http://www.w3.org/2000/svg" viewBox="0 0 152.688 46.246"><path fill="#FFF" d="M9.862 28.57h2.174l-3.78 9.735L4.6 28.57h2.46v-1.64H0v1.64h1.953l5.01 12.508c-1.228 3.057-2.3 3.687-3.434 3.75.156-.252.282-.63.282-1.07 0-.883-.63-1.608-1.606-1.608-1.04 0-1.765.882-1.765 1.89 0 1.26 1.01 2.206 2.742 2.206 2.11 0 3.938-1.23 5.734-5.704L13.8 28.57h1.733v-1.64h-5.67v1.64zM27.602 36.95c-.85 2.11-2.3 2.773-4.033 2.773-2.68 0-4.476-1.89-4.538-5.577h9.957c.093-3.75-1.734-7.468-5.862-7.468-3.78 0-6.743 3.182-6.743 7.5 0 4.22 2.52 7.215 6.648 7.215 2.93 0 5.042-1.513 5.893-4.443h-1.324zm-4.632-8.917c2.174 0 3.276 1.796 3.497 4.758h-7.404c.315-3.15 1.827-4.757 3.907-4.757zM38.502 39.47h-2.647V19.464H30.72v1.7h2.677v18.308H30.72v1.64h7.782M48.08 39.47h-2.646V19.464h-5.136v1.7h2.678v18.308h-2.678v1.64h7.782M62.638 33.925c0-4.348-2.805-7.247-6.838-7.247-3.876 0-6.838 3.056-6.838 7.468 0 4.348 2.805 7.247 6.838 7.247 3.876 0 6.838-3.056 6.838-7.468zm-6.712 6.082c-2.363 0-4.316-1.86-4.316-5.955 0-4.096 1.732-5.987 4.064-5.987 2.363 0 4.285 1.828 4.285 5.955 0 4.096-1.702 5.987-4.034 5.987zM86.552 26.93h-5.61v1.64h2.207l-3.435 10.02h-.095l-3.403-10.02h2.553v-1.64h-6.933v1.64h1.954l.474 1.385-3.467 8.634h-.063L67.49 28.57h2.394v-1.64h-6.9v1.64h1.953l4.38 12.73H71.3l3.718-9.14 3.213 9.14h2.017l4.6-12.73h1.702M94.112 32.79c-2.584-.724-3.718-1.45-3.718-2.772 0-1.292 1.197-2.048 2.52-2.048 2.112 0 3.09 1.26 4.065 3.56h1.386v-4.852H96.98l-.348 1.7c-.725-1.102-2.08-1.7-3.687-1.7-2.836 0-4.758 1.922-4.758 4.096 0 2.174 1.354 3.31 4.82 4.285 2.837.787 3.845 1.417 3.845 2.835 0 1.323-1.008 2.206-2.772 2.206-2.237 0-3.94-1.575-4.695-4.064h-1.45v5.357h1.388l.347-1.985c.945 1.198 2.457 1.985 4.41 1.985 3.058 0 4.916-2.174 4.916-4.317 0-2.363-1.418-3.34-4.884-4.285zM113.994 36.51h-1.354c-.788 2.11-2.174 3.245-4.16 3.245-2.835 0-4.536-2.174-4.536-5.766 0-3.688 1.827-5.988 4.41-5.988 1.607 0 2.616.693 3.12 1.45-.693.25-1.197.944-1.197 1.7 0 .915.63 1.703 1.7 1.703 1.136 0 1.83-.945 1.83-2.174 0-1.827-2.27-4-5.357-4-4.254 0-7.153 3.15-7.153 7.625 0 4.096 2.647 7.09 6.586 7.09 3.055-.002 5.293-1.703 6.11-4.886zM129.4 38.368c-.346.82-.724 1.26-1.26 1.26-.63 0-.945-.284-.945-1.26v-7.405c0-2.867-1.732-4.254-4.98-4.254-2.93 0-5.576 1.45-5.576 3.497 0 .977.66 1.702 1.67 1.702 1.008 0 1.638-.694 1.638-1.608 0-.662-.314-1.166-.85-1.45.66-.536 1.606-.82 2.71-.82 1.89 0 2.93.757 2.93 2.836v1.387c0 .536-.315.6-2.237.914-2.77.44-4.284.85-5.388 1.953-.66.693-.977 1.607-.977 2.52 0 2.207 1.48 3.688 4.064 3.688 1.922 0 3.78-1.07 4.726-2.677h.095c.032 1.86 1.104 2.615 2.396 2.615 1.418 0 2.206-.756 2.93-2.363l-.945-.537zm-4.662-1.733c0 1.638-1.796 3.025-3.466 3.025-1.64 0-2.458-.882-2.458-2.458 0-1.89 1.166-2.552 4.38-3.056.756-.126 1.26-.22 1.544-.315v2.805z"/><path fill="#FFF" d="M136.552 19.463h-4.29l-7.91-12.08-2.977 4.54L113.318 0l-7.857 11.82-3.08-4.546L91.845 23.08h2.11l8.312-12.366v9.24L113.39 3.197l11.107 16.744v-9.09l6.85 10.312h2.747V39.47h-2.678v1.64h7.782v-1.64h-2.646M147.265 39.723c-2.68 0-4.475-1.89-4.537-5.577h9.957c.094-3.75-1.733-7.468-5.86-7.468-3.782 0-6.744 3.182-6.744 7.5 0 4.22 2.522 7.215 6.65 7.215 2.93 0 5.04-1.513 5.892-4.443H151.3c-.853 2.11-2.302 2.773-4.035 2.773zm-.6-11.69c2.175 0 3.278 1.796 3.498 4.758h-7.404c.314-3.15 1.826-4.757 3.906-4.757z"/></svg>