<?xml version="1.0" encoding="utf-8"?>
<!-- Generator: Adobe Illustrator 16.0.4, SVG Export Plug-In . SVG Version: 6.00 Build 0)  -->
<!DOCTYPE svg PUBLIC "-//W3C//DTD SVG 1.1 Tiny//EN" "http://www.w3.org/Graphics/SVG/1.1/DTD/svg11-tiny.dtd">
<svg version="1.1" baseProfile="tiny" id="Layer_1" xmlns="http://www.w3.org/2000/svg" xmlns:xlink="http://www.w3.org/1999/xlink"
	 x="0px" y="0px" width="160.333px" height="52.667px" viewBox="0 0 160.333 52.667" xml:space="preserve">
<path fill="#FFFFFF" d="M13.314,31.436h2.174l-3.777,9.73l-3.654-9.73h2.457v-1.639H3.461v1.639h1.951l5.006,12.5
	c-1.227,3.055-2.299,3.684-3.432,3.746c0.158-0.252,0.283-0.629,0.283-1.07c0-0.883-0.629-1.605-1.605-1.605
	c-1.039,0-1.764,0.881-1.764,1.889c0,1.26,1.008,2.205,2.74,2.205c2.109,0,3.936-1.229,5.73-5.699l4.881-11.965h1.73v-1.639h-5.668
	V31.436z"/>
<path fill="#FFFFFF" d="M26.477,44.25c2.93,0,5.039-1.51,5.889-4.439h-1.322c-0.85,2.109-2.299,2.77-4.031,2.77
	c-2.676,0-4.471-1.887-4.533-5.572h9.949c0.096-3.746-1.73-7.461-5.855-7.461c-3.779,0-6.738,3.18-6.738,7.492
	C19.834,41.26,22.354,44.25,26.477,44.25z M26.414,30.899c2.172,0,3.275,1.797,3.496,4.756h-7.4
	C22.826,32.506,24.336,30.899,26.414,30.899z"/>
<polygon fill="#FFFFFF" points="41.938,42.331 39.293,42.331 39.293,22.336 34.16,22.336 34.16,24.036 36.836,24.036 36.836,42.331 
	34.16,42.331 34.16,43.967 41.938,43.967 "/>
<polygon fill="#FFFFFF" points="50.881,42.331 48.236,42.331 48.236,22.336 43.104,22.336 43.104,24.036 45.779,24.036 
	45.779,42.331 43.104,42.331 43.104,43.967 50.881,43.967 "/>
<polygon fill="#FFFFFF" points="90.898,31.436 90.898,29.797 85.295,29.797 85.295,31.436 87.498,31.436 84.066,41.45 83.973,41.45 
	80.572,31.436 83.123,31.436 83.123,29.797 76.195,29.797 76.195,31.436 78.148,31.436 78.619,32.821 75.156,41.45 75.094,41.45 
	71.85,31.436 74.244,31.436 74.244,29.797 67.348,29.797 67.348,31.436 69.301,31.436 73.676,44.155 75.66,44.155 79.377,35.026 
	82.588,44.155 84.602,44.155 89.199,31.436 "/>
<path fill="#725321" d="M94.018,42.268c0.945,1.195,2.455,1.982,4.408,1.982c3.055,0,4.912-2.172,4.912-4.312
	c0-2.363-1.416-3.338-4.881-4.283c-2.582-0.725-3.715-1.447-3.715-2.771c0-1.291,1.195-2.047,2.518-2.047
	c2.111,0,3.086,1.26,4.062,3.561h1.387v-4.85h-1.387l-0.346,1.699c-0.725-1.102-2.078-1.699-3.684-1.699
	c-2.834,0-4.756,1.92-4.756,4.092s1.354,3.307,4.818,4.283c2.834,0.787,3.842,1.416,3.842,2.834c0,1.322-1.008,2.203-2.771,2.203
	c-2.236,0-3.936-1.574-4.691-4.062h-1.449v5.354h1.387L94.018,42.268z"/>
<path fill="#725321" d="M112.217,44.25c3.055,0,5.289-1.699,6.109-4.881h-1.354c-0.787,2.109-2.174,3.244-4.156,3.244
	c-2.834,0-4.535-2.174-4.535-5.764c0-3.682,1.826-5.98,4.408-5.98c1.605,0,2.613,0.691,3.117,1.447
	c-0.693,0.252-1.195,0.945-1.195,1.701c0,0.912,0.629,1.699,1.699,1.699c1.135,0,1.826-0.943,1.826-2.172
	c0-1.826-2.266-3.998-5.354-3.998c-4.25,0-7.146,3.148-7.146,7.619C105.637,41.26,108.281,44.25,112.217,44.25z"/>
<path fill="#725321" d="M120.971,33.073c0,0.977,0.662,1.701,1.67,1.701s1.637-0.693,1.637-1.605c0-0.662-0.314-1.166-0.85-1.449
	c0.66-0.537,1.605-0.82,2.707-0.82c1.889,0,2.928,0.756,2.928,2.836v1.385c0,0.535-0.314,0.598-2.234,0.912
	c-2.771,0.441-4.283,0.852-5.385,1.953c-0.662,0.693-0.977,1.605-0.977,2.52c0,2.203,1.48,3.684,4.062,3.684
	c1.92,0,3.777-1.07,4.723-2.676h0.094c0.031,1.857,1.104,2.613,2.393,2.613c1.418,0,2.205-0.756,2.93-2.363l-0.945-0.533
	c-0.346,0.818-0.725,1.258-1.26,1.258c-0.629,0-0.943-0.283-0.943-1.258v-7.4c0-2.865-1.732-4.25-4.977-4.25
	C123.615,29.579,120.971,31.026,120.971,33.073z M129.062,39.497c0,1.637-1.795,3.021-3.463,3.021c-1.637,0-2.455-0.881-2.455-2.455
	c0-1.889,1.164-2.551,4.375-3.055c0.756-0.125,1.26-0.219,1.543-0.314V39.497z"/>
<path fill="#725321" d="M151.135,29.547c-3.777,0-6.738,3.18-6.738,7.492c0,4.221,2.52,7.211,6.645,7.211
	c2.928,0,5.037-1.51,5.889-4.439h-1.324c-0.85,2.109-2.297,2.77-4.029,2.77c-2.676,0-4.471-1.887-4.535-5.572h9.951
	C157.086,33.262,155.26,29.547,151.135,29.547z M147.072,35.655c0.316-3.148,1.828-4.756,3.906-4.756
	c2.172,0,3.273,1.797,3.494,4.756H147.072z"/>
<path fill="#FFFFFF" d="M52.133,36.629c0,4.119,3.338,7.455,7.455,7.455c4.119,0,7.457-3.336,7.457-7.455
	c0-4.117-3.338-7.455-7.457-7.455C55.471,29.174,52.133,32.512,52.133,36.629z M59.588,30.547c0.191,0,0.381,0.014,0.568,0.031
	l0.736,2.279l-6.057-0.01C55.949,31.45,57.666,30.547,59.588,30.547z M56.764,37.542l1.084-3.314l3.488,0.006l1.072,3.318
	l-2.826,2.045L56.764,37.542z M54.008,34.221l2.396,0.004l-1.883,5.76c-0.641-0.963-1.014-2.115-1.014-3.355
	C53.508,35.774,53.688,34.959,54.008,34.221z M55.574,41.186l0.742-2.271l4.895,3.57c-0.518,0.145-1.061,0.227-1.623,0.227
	C58.049,42.711,56.646,42.131,55.574,41.186z M62.682,41.856l-1.932-1.408l4.906-3.551C65.564,39.008,64.395,40.838,62.682,41.856z
	 M65.52,35.301l-1.941,1.402l-1.861-5.764C63.617,31.655,65.068,33.288,65.52,35.301z"/>
<polygon fill="#725321" points="140.752,22.336 135.619,22.336 135.619,24.036 138.297,24.036 138.297,42.331 135.619,42.331 
	135.619,43.967 143.396,43.967 143.396,42.331 140.752,42.331 "/>
<polygon fill="#725321" points="135.307,24.044 128.458,13.733 128.458,22.823 117.352,6.079 106.227,22.834 106.227,13.595 
	97.916,25.96 95.805,25.96 106.342,10.155 109.422,14.7 117.278,2.881 125.336,14.804 128.312,10.263 137.338,24.044 "/>
</svg>
