<?xml version="1.0" encoding="utf-8"?>
<!-- Generator: Adobe Illustrator 16.0.4, SVG Export Plug-In . SVG Version: 6.00 Build 0)  -->
<!DOCTYPE svg PUBLIC "-//W3C//DTD SVG 1.1 Tiny//EN" "http://www.w3.org/Graphics/SVG/1.1/DTD/svg11-tiny.dtd">
<svg version="1.1" baseProfile="tiny" id="Layer_1" xmlns="http://www.w3.org/2000/svg" xmlns:xlink="http://www.w3.org/1999/xlink"
	 x="0px" y="0px" width="289.686px" height="134.535px" viewBox="0 0 289.686 134.535" xml:space="preserve">
<g>
	<rect x="50.307" y="116.214" fill="#715221" width="5.913" height="4"/>
	<rect x="38.479" y="116.214" fill="#715221" width="5.914" height="4"/>
	<rect x="26.65" y="116.214" fill="#715221" width="5.914" height="4"/>
	<rect x="13.737" y="101.864" fill="#715221" width="4" height="5.674"/>
	<rect x="13.737" y="90.515" fill="#715221" width="4" height="5.676"/>
	<rect x="259.205" y="13.747" fill="#715221" width="5.914" height="4"/>
	<rect x="235.55" y="13.747" fill="#715221" width="5.913" height="4"/>
	<rect x="247.377" y="13.747" fill="#715221" width="5.914" height="4"/>
	<rect x="274.032" y="26.421" fill="#715221" width="4" height="5.674"/>
	<rect x="274.032" y="37.771" fill="#715221" width="4" height="5.674"/>
	<path fill="#715221" d="M269.782,21.997h12.5v-12.5h-12.5V21.997z M271.782,11.497h8.5v8.5h-8.5V11.497z"/>
	<path fill="#715221" d="M9.487,124.464h12.5v-12.5h-12.5V124.464z M11.487,113.964h8.5v8.5h-8.5V113.964z"/>
	<polygon fill="#715221" points="0,134.536 8.403,132.013 1.938,125.544 	"/>
	<polygon fill="#715221" points="281.282,2.524 287.748,8.993 289.686,-0.001 	"/>
	<path d="M49.35,48.337h3.162l-5.498,14.16l-5.316-14.16h3.574v-2.383H35.008v2.383h2.841l7.286,18.191
		c-1.787,4.445-3.346,5.361-4.995,5.453c0.229-0.367,0.413-0.916,0.413-1.559c0-1.283-0.917-2.336-2.338-2.336
		c-1.512,0-2.565,1.281-2.565,2.748c0,1.834,1.466,3.209,3.986,3.209c3.07,0,5.728-1.787,8.34-8.295l7.103-17.412h2.52v-2.383H49.35
		V48.337z"/>
	<path d="M68.504,66.987c4.262,0,7.332-2.199,8.569-6.461h-1.925c-1.237,3.07-3.345,4.031-5.865,4.031
		c-3.895,0-6.507-2.748-6.598-8.109h14.479c0.139-5.453-2.52-10.859-8.522-10.859c-5.499,0-9.806,4.627-9.806,10.904
		C58.836,62.634,62.502,66.987,68.504,66.987z M68.412,47.558c3.162,0,4.766,2.613,5.087,6.92H62.73
		C63.189,49.896,65.389,47.558,68.412,47.558z"/>
	<polygon points="91.004,64.192 87.154,64.192 87.154,35.095 79.686,35.095 79.686,37.569 83.58,37.569 83.58,64.192 79.686,64.192 
		79.686,66.573 91.004,66.573 	"/>
	<polygon points="104.018,64.192 100.168,64.192 100.168,35.095 92.699,35.095 92.699,37.569 96.594,37.569 96.594,64.192 
		92.699,64.192 92.699,66.573 104.018,66.573 	"/>
	<polygon points="162.257,48.337 162.257,45.954 154.102,45.954 154.102,48.337 157.309,48.337 152.314,62.909 152.176,62.909 
		147.228,48.337 150.939,48.337 150.939,45.954 140.858,45.954 140.858,48.337 143.699,48.337 144.387,50.353 139.346,62.909 
		139.254,62.909 134.535,48.337 138.018,48.337 138.018,45.954 127.982,45.954 127.982,48.337 130.823,48.337 137.192,66.849 
		140.079,66.849 145.486,53.562 150.16,66.849 153.093,66.849 159.783,48.337 	"/>
	<path d="M166.795,64.101c1.375,1.74,3.574,2.887,6.415,2.887c4.445,0,7.148-3.162,7.148-6.277c0-3.438-2.062-4.857-7.103-6.232
		c-3.757-1.055-5.407-2.107-5.407-4.033c0-1.879,1.741-2.979,3.666-2.979c3.07,0,4.49,1.834,5.911,5.18h2.017v-7.057h-2.017
		l-0.504,2.473c-1.054-1.604-3.024-2.473-5.361-2.473c-4.124,0-6.919,2.795-6.919,5.955c0,3.162,1.97,4.812,7.011,6.232
		c4.124,1.146,5.59,2.062,5.59,4.125c0,1.924-1.466,3.207-4.032,3.207c-3.253,0-5.728-2.291-6.827-5.912h-2.108v7.791h2.017
		L166.795,64.101z"/>
	<path d="M193.281,66.987c4.444,0,7.697-2.475,8.889-7.104h-1.97c-1.146,3.07-3.162,4.721-6.049,4.721
		c-4.124,0-6.599-3.162-6.599-8.387c0-5.359,2.658-8.705,6.415-8.705c2.337,0,3.804,1.008,4.537,2.107
		c-1.009,0.367-1.741,1.375-1.741,2.475c0,1.328,0.916,2.475,2.474,2.475c1.65,0,2.658-1.375,2.658-3.162
		c0-2.658-3.299-5.818-7.79-5.818c-6.186,0-10.401,4.582-10.401,11.088C183.704,62.634,187.553,66.987,193.281,66.987z"/>
	<path d="M206.02,50.72c0,1.42,0.963,2.475,2.429,2.475c1.467,0,2.383-1.008,2.383-2.336c0-0.963-0.458-1.697-1.237-2.109
		c0.962-0.779,2.337-1.191,3.94-1.191c2.75,0,4.262,1.1,4.262,4.125v2.016c0,0.779-0.458,0.871-3.253,1.328
		c-4.033,0.643-6.232,1.238-7.836,2.842c-0.962,1.008-1.421,2.338-1.421,3.666c0,3.207,2.154,5.361,5.911,5.361
		c2.796,0,5.499-1.559,6.874-3.895h0.137c0.046,2.703,1.604,3.803,3.482,3.803c2.062,0,3.208-1.1,4.262-3.438l-1.374-0.777
		c-0.505,1.191-1.055,1.832-1.833,1.832c-0.917,0-1.375-0.412-1.375-1.832v-10.77c0-4.17-2.521-6.186-7.24-6.186
		C209.869,45.634,206.02,47.741,206.02,50.72z M217.796,60.067c0,2.383-2.611,4.398-5.04,4.398c-2.383,0-3.574-1.281-3.574-3.574
		c0-2.748,1.695-3.711,6.369-4.443c1.1-0.184,1.833-0.32,2.245-0.459V60.067z"/>
	<polygon points="233.604,35.095 226.136,35.095 226.136,37.569 230.03,37.569 230.03,64.192 226.136,64.192 226.136,66.573 
		237.453,66.573 237.453,64.192 233.604,64.192 	"/>
	<path d="M249.917,45.589c-5.498,0-9.806,4.627-9.806,10.904c0,6.141,3.666,10.494,9.668,10.494c4.262,0,7.332-2.199,8.569-6.461
		h-1.925c-1.237,3.07-3.345,4.031-5.865,4.031c-3.895,0-6.507-2.748-6.599-8.109h14.48C258.577,50.995,255.92,45.589,249.917,45.589
		z M244.006,54.478c0.459-4.582,2.658-6.92,5.683-6.92c3.161,0,4.765,2.613,5.086,6.92H244.006z"/>
	<path d="M105.84,55.896c0,5.994,4.857,10.85,10.85,10.85c5.993,0,10.851-4.855,10.851-10.85c0-5.992-4.857-10.85-10.851-10.85
		C110.697,45.046,105.84,49.903,105.84,55.896z M116.689,47.046c0.278,0,0.553,0.018,0.825,0.043l1.072,3.318l-8.814-0.016
		C111.395,48.356,113.891,47.046,116.689,47.046z M112.58,57.224l1.577-4.824l5.076,0.008l1.561,4.83l-4.112,2.977L112.58,57.224z
		 M108.567,52.39l3.487,0.006l-2.739,8.383c-0.931-1.4-1.476-3.078-1.476-4.883C107.84,54.651,108.102,53.466,108.567,52.39z
		 M110.848,62.526l1.079-3.305l7.124,5.195c-0.753,0.209-1.543,0.33-2.361,0.33C114.449,64.747,112.407,63.903,110.848,62.526z
		 M121.19,63.503l-2.81-2.051l7.14-5.168C125.386,59.356,123.684,62.021,121.19,63.503z M125.32,53.962l-2.823,2.043l-2.711-8.389
		C122.553,48.655,124.664,51.032,125.32,53.962z"/>
	<path fill="#715221" d="M109.307,36.026l0.245-0.26c0.573-0.52,1.303-0.803,2.084-0.803h10.383c0.81,0,1.581,0.326,2.197,0.941
		l5.322,5.361h8.76c0.998,0,1.863,0.445,2.437,1.137h2.316c-0.78-1.84-2.616-3.137-4.753-3.137h-7.926l-4.697-4.742l-0.332-0.326
		h-0.025c-0.928-0.799-2.084-1.234-3.299-1.234h-10.383c-1.454,0-2.797,0.594-3.779,1.674l-4.104,4.166v2.463h0.379L109.307,36.026z
		"/>
	<path fill="#715221" d="M141.341,70.136c-0.351,1.365-1.576,2.381-3.043,2.381H95.185c-1.468,0-2.693-1.016-3.043-2.381H90.11
		c0.381,2.475,2.501,4.381,5.074,4.381h43.113c2.573,0,4.693-1.906,5.074-4.381H141.341z"/>
	<path fill="#715221" d="M72.557,89.608c0-1.703-1.222-3.068-2.699-3.068c-0.767,0-1.477,0.369-1.96,0.967v-6.135l-1.478,0.17
		v19.006h1.022l0.256-1.08c0.483,0.738,1.278,1.223,2.159,1.223c1.478,0,2.699-1.365,2.699-3.068V89.608z M71.079,97.622
		c0,0.879-0.71,1.59-1.591,1.59s-1.591-0.711-1.591-1.59v-8.014c0-0.881,0.71-1.59,1.591-1.59s1.591,0.709,1.591,1.59V97.622z"/>
	<path fill="#715221" d="M77.243,97.563h-0.057l-1.705-10.881h-1.478l2.473,13.865l-0.284,1.59c0,0-0.284,1.535-1.592,1.535v1.477
		c2.529,0,3.069-3.012,3.069-3.012l2.756-15.455h-1.478L77.243,97.563z"/>
	<path fill="#715221" d="M90.452,97.138c0,1.223-0.995,2.217-2.217,2.217s-2.216-0.994-2.216-2.217v-1.988l-1.478,0.17v1.818
		c0,2.047,1.647,3.693,3.693,3.693s3.693-1.646,3.693-3.693V81.372h-1.477V97.138z"/>
	<path fill="#715221" d="M100.395,97.622v-8.014c0-1.703-1.364-3.068-3.068-3.068c-1.705,0-3.069,1.365-3.069,3.068v8.014
		c0,1.703,1.364,3.068,3.069,3.068C99.03,100.69,100.395,99.325,100.395,97.622z M95.734,97.622v-8.014
		c0-0.881,0.711-1.59,1.592-1.59s1.591,0.709,1.591,1.59v8.014c0,0.879-0.71,1.59-1.591,1.59S95.734,98.501,95.734,97.622z"/>
	<path fill="#715221" d="M108.802,100.548V89.608c0-1.703-1.222-3.068-2.699-3.068c-0.881,0-1.676,0.484-2.159,1.223l-0.256-1.08
		h-1.022v13.865h1.478V89.608c0-0.881,0.71-1.59,1.591-1.59s1.591,0.709,1.591,1.59v10.939H108.802z"/>
	<path fill="#715221" d="M116.898,98.56v-9.121c0-1.592-1.308-2.898-2.898-2.898s-2.897,1.307-2.897,2.898v1.818l1.478-0.17v-1.648
		c0-0.795,0.625-1.42,1.42-1.42c0.796,0,1.421,0.625,1.421,1.42v1.393c0,1.137-1.222,1.846-1.222,1.846l-2.188,1.25
		c0,0-1.25,0.711-1.25,2.131v1.564c0,1.703,1.363,3.068,3.068,3.068c0.795,0,1.534-0.285,2.074-0.797
		c0.369,0.398,0.908,0.654,1.505,0.654v-1.479C117.126,99.069,116.898,98.843,116.898,98.56z M115.421,97.622
		c0,0.879-0.71,1.59-1.591,1.59s-1.592-0.711-1.592-1.59v-1.564c0-0.566,0.512-0.852,0.512-0.852l2.188-1.25
		c0,0,0.256-0.143,0.483-0.369V97.622z"/>
	<path fill="#715221" d="M120.163,84.013v2.67h-1.79v1.477h1.79v10.484c0,1.137,0.909,2.047,2.046,2.047v-1.479
		c-0.312,0-0.568-0.256-0.568-0.568V88.159h1.79v-1.477h-1.79v-2.842L120.163,84.013z"/>
	<path fill="#715221" d="M131.157,100.548V89.608c0-1.703-1.222-3.068-2.699-3.068c-0.767,0-1.478,0.369-1.96,0.967v-6.135
		l-1.478,0.17v19.006h1.478V89.608c0-0.881,0.71-1.59,1.591-1.59s1.591,0.709,1.591,1.59v10.939H131.157z"/>
	<path fill="#715221" d="M139.253,98.56v-9.121c0-1.592-1.308-2.898-2.898-2.898s-2.897,1.307-2.897,2.898v1.818l1.478-0.17v-1.648
		c0-0.795,0.625-1.42,1.42-1.42c0.796,0,1.421,0.625,1.421,1.42v1.393c0,1.137-1.222,1.846-1.222,1.846l-2.188,1.25
		c0,0-1.25,0.711-1.25,2.131v1.564c0,1.703,1.363,3.068,3.068,3.068c0.795,0,1.534-0.285,2.073-0.797
		c0.37,0.398,0.91,0.654,1.506,0.654v-1.479C139.48,99.069,139.253,98.843,139.253,98.56z M137.775,97.622
		c0,0.879-0.71,1.59-1.591,1.59s-1.592-0.711-1.592-1.59v-1.564c0-0.566,0.512-0.852,0.512-0.852l2.188-1.25
		c0,0,0.256-0.143,0.483-0.369V97.622z"/>
	<path fill="#715221" d="M143.2,89.608c0-0.881,0.71-1.59,1.591-1.59s1.591,0.709,1.591,1.59v10.939h1.478V89.608
		c0-1.703-1.222-3.068-2.699-3.068c-0.881,0-1.676,0.484-2.159,1.223l-0.256-1.08h-1.022v13.865h1.478V89.608z"/>
	<polygon fill="#715221" points="160.33,99.069 155.699,99.069 155.699,81.372 154.222,81.372 154.222,100.548 160.33,100.548 	"/>
	<path fill="#715221" d="M168.027,97.622v-1.818l-1.478,0.17v1.648c0,0.879-0.71,1.59-1.591,1.59s-1.592-0.711-1.592-1.59V93.87
		h4.66v-4.262c0-1.703-1.364-3.068-3.068-3.068c-1.705,0-3.069,1.365-3.069,3.068v8.014c0,1.703,1.364,3.068,3.069,3.068
		C166.663,100.69,168.027,99.325,168.027,97.622z M163.367,89.608c0-0.881,0.711-1.59,1.592-1.59s1.591,0.709,1.591,1.59v2.785
		h-3.183V89.608z"/>
	<path fill="#715221" d="M173.083,86.54c-1.705,0-3.069,1.365-3.069,3.068v8.014c0,1.703,1.364,3.068,3.069,3.068
		c1.704,0,3.068-1.365,3.068-3.068v-1.818l-1.478,0.17v1.648c0,0.879-0.711,1.59-1.591,1.59c-0.881,0-1.592-0.711-1.592-1.59V93.87
		h4.66v-4.262C176.151,87.905,174.787,86.54,173.083,86.54z M174.674,92.394h-3.183v-2.785c0-0.881,0.711-1.59,1.592-1.59
		c0.88,0,1.591,0.709,1.591,1.59V92.394z"/>
	<polygon fill="#715221" points="191.634,84.325 191.634,100.548 193.111,100.548 193.111,81.372 190.866,81.372 187.685,98.274 
		187.627,98.274 184.474,81.372 182.258,81.372 182.258,100.548 183.735,100.548 183.735,84.466 183.792,84.466 186.832,100.548 
		188.508,100.548 191.576,84.325 	"/>
	<path fill="#715221" d="M201.348,98.56v-9.121c0-1.592-1.308-2.898-2.898-2.898s-2.897,1.307-2.897,2.898v1.818l1.478-0.17v-1.648
		c0-0.795,0.625-1.42,1.42-1.42c0.796,0,1.421,0.625,1.421,1.42v1.393c0,1.137-1.222,1.846-1.222,1.846l-2.188,1.25
		c0,0-1.25,0.711-1.25,2.131v1.564c0,1.703,1.363,3.068,3.068,3.068c0.795,0,1.534-0.285,2.074-0.797
		c0.369,0.398,0.908,0.654,1.505,0.654v-1.479C201.575,99.069,201.348,98.843,201.348,98.56z M199.87,97.622
		c0,0.879-0.71,1.59-1.591,1.59s-1.592-0.711-1.592-1.59v-1.564c0-0.566,0.512-0.852,0.512-0.852l2.188-1.25
		c0,0,0.256-0.143,0.483-0.369V97.622z"/>
	<path fill="#715221" d="M205.096,87.763l-0.256-1.08h-1.022v13.865h1.478V89.751c0-0.967,0.738-1.732,1.705-1.732h1.051V86.54
		C206.545,86.54,205.579,87.024,205.096,87.763z"/>
	<path fill="#715221" d="M211.941,83.841l-1.478,0.172v2.67h-1.79v1.477h1.79v10.484c0,1.137,0.909,2.047,2.046,2.047v-1.479
		c-0.312,0-0.568-0.256-0.568-0.568V88.159h1.79v-1.477h-1.79V83.841z"/>
	<rect x="215.321" y="86.683" fill="#715221" width="1.478" height="13.865"/>
	<rect x="215.321" y="83.103" fill="#715221" width="1.478" height="1.988"/>
	<path fill="#715221" d="M222.679,86.54c-0.881,0-1.676,0.484-2.159,1.223l-0.256-1.08h-1.022v13.865h1.478V89.608
		c0-0.881,0.71-1.59,1.591-1.59s1.591,0.709,1.591,1.59v10.939h1.478V89.608C225.378,87.905,224.156,86.54,222.679,86.54z"/>
</g>
</svg>
