<svg baseProfile="tiny" xmlns="http://www.w3.org/2000/svg" width="160.333" height="52.667" viewBox="0 0 160.333 52.667"><path fill="#FFF" d="M13.314 31.436h2.174l-3.777 9.73-3.653-9.73h2.457v-1.64H3.46v1.64h1.952l5.006 12.5c-1.227 3.055-2.3 3.684-3.432 3.746.158-.252.283-.63.283-1.07 0-.883-.63-1.605-1.606-1.605-1.04 0-1.764.88-1.764 1.89 0 1.26 1.008 2.204 2.74 2.204 2.11 0 3.936-1.228 5.73-5.698l4.88-11.965h1.73v-1.64h-5.667v1.64zM26.477 44.25c2.93 0 5.04-1.51 5.89-4.44h-1.323c-.85 2.11-2.3 2.77-4.03 2.77-2.677 0-4.472-1.886-4.534-5.57h9.95c.095-3.747-1.73-7.462-5.856-7.462-3.78 0-6.738 3.18-6.738 7.492-.002 4.22 2.518 7.21 6.64 7.21zm-.063-13.35c2.172 0 3.275 1.796 3.496 4.755h-7.4c.316-3.15 1.826-4.756 3.904-4.756zM41.938 42.33h-2.645V22.337H34.16v1.7h2.676V42.33H34.16v1.637h7.778M50.88 42.33h-2.644V22.337h-5.132v1.7h2.675V42.33h-2.676v1.637h7.777M90.898 31.436v-1.64h-5.603v1.64h2.203L84.066 41.45h-.093l-3.4-10.014h2.55v-1.64h-6.928v1.64h1.953l.47 1.385-3.462 8.63h-.062L71.85 31.436h2.394v-1.64h-6.896v1.64H69.3l4.376 12.72h1.984l3.717-9.13 3.21 9.13h2.015l4.597-12.72"/><path fill="#725321" d="M94.018 42.268c.945 1.195 2.455 1.982 4.408 1.982 3.055 0 4.912-2.172 4.912-4.312 0-2.363-1.416-3.338-4.88-4.283-2.583-.725-3.716-1.447-3.716-2.77 0-1.292 1.195-2.048 2.518-2.048 2.11 0 3.086 1.26 4.062 3.56h1.387v-4.85h-1.388l-.346 1.7c-.725-1.102-2.078-1.7-3.684-1.7-2.834 0-4.756 1.92-4.756 4.093s1.354 3.307 4.818 4.283c2.834.787 3.842 1.416 3.842 2.834 0 1.322-1.008 2.203-2.77 2.203-2.237 0-3.937-1.574-4.692-4.062h-1.45v5.354h1.388l.346-1.984zM112.217 44.25c3.055 0 5.29-1.7 6.11-4.88h-1.355c-.787 2.108-2.174 3.243-4.156 3.243-2.834 0-4.535-2.174-4.535-5.764 0-3.683 1.827-5.98 4.41-5.98 1.604 0 2.612.69 3.116 1.446-.693.252-1.195.945-1.195 1.7 0 .913.63 1.7 1.7 1.7 1.135 0 1.826-.943 1.826-2.172 0-1.826-2.266-3.998-5.354-3.998-4.25 0-7.146 3.148-7.146 7.62 0 4.094 2.645 7.084 6.58 7.084zM120.97 33.073c0 .977.663 1.7 1.67 1.7s1.638-.692 1.638-1.604c0-.663-.314-1.167-.85-1.45.66-.537 1.605-.82 2.707-.82 1.89 0 2.928.756 2.928 2.836v1.385c0 .536-.314.6-2.234.913-2.772.44-4.284.852-5.386 1.953-.662.693-.977 1.605-.977 2.52 0 2.203 1.48 3.684 4.062 3.684 1.92 0 3.776-1.07 4.722-2.676h.094c.03 1.857 1.104 2.613 2.393 2.613 1.417 0 2.204-.756 2.93-2.363l-.946-.533c-.346.82-.725 1.26-1.26 1.26-.63 0-.943-.284-.943-1.26v-7.4c0-2.864-1.73-4.25-4.976-4.25-2.93 0-5.573 1.446-5.573 3.493zm8.092 6.424c0 1.637-1.795 3.02-3.463 3.02-1.638 0-2.456-.88-2.456-2.454 0-1.89 1.164-2.55 4.375-3.055.755-.125 1.26-.22 1.542-.314v2.803zM151.135 29.547c-3.777 0-6.738 3.18-6.738 7.492 0 4.22 2.52 7.21 6.645 7.21 2.928 0 5.037-1.51 5.89-4.44h-1.325c-.85 2.11-2.297 2.77-4.03 2.77-2.675 0-4.47-1.886-4.534-5.57h9.95c.093-3.748-1.733-7.463-5.858-7.463zm-4.063 6.108c.316-3.148 1.828-4.756 3.906-4.756 2.172 0 3.273 1.796 3.494 4.755h-7.4z"/><path fill="#FFF" d="M52.133 36.63c0 4.118 3.338 7.454 7.455 7.454 4.12 0 7.457-3.336 7.457-7.455 0-4.118-3.338-7.456-7.457-7.456-4.117 0-7.455 3.338-7.455 7.455zm7.455-6.083c.19 0 .38.014.568.03l.736 2.28-6.057-.01c1.114-1.397 2.83-2.3 4.753-2.3zm-2.824 6.995l1.084-3.314 3.488.006 1.072 3.318-2.826 2.045-2.818-2.055zm-2.756-3.32l2.396.003-1.883 5.76c-.64-.963-1.013-2.115-1.013-3.355 0-.856.18-1.67.5-2.41zm1.566 6.964l.742-2.27 4.895 3.57c-.517.144-1.06.226-1.622.226-1.54 0-2.942-.58-4.014-1.526zm7.108.67l-1.932-1.408 4.906-3.55c-.092 2.11-1.26 3.94-2.974 4.958zM65.52 35.3l-1.94 1.403-1.862-5.764c1.9.715 3.35 2.348 3.802 4.36z"/><path fill="#725321" d="M140.752 22.336h-5.133v1.7h2.677V42.33h-2.678v1.637h7.776V42.33h-2.644M135.307 24.044l-6.85-10.31v9.09L117.353 6.078l-11.125 16.754v-9.24l-8.31 12.366h-2.112l10.537-15.805 3.08 4.545 7.856-11.82 8.058 11.924 2.976-4.54 9.026 13.78"/></svg>